<svg xmlns:xlink="http://www.w3.org/1999/xlink" xmlns="http://www.w3.org/2000/svg" viewBox="0 0 100 100" width="100" height="100" preserveAspectRatio="xMidYMid meet" style="width: 100%; height: 100%; transform: translate3d(0px, 0px, 0px);"><defs><clipPath id="__lottie_element_20"><rect width="100" height="100" x="0" y="0"></rect></clipPath><clipPath id="__lottie_element_22"><path d="M0,0 L800,0 L800,800 L0,800z"></path></clipPath></defs><g clip-path="url(#__lottie_element_20)"><g clip-path="url(#__lottie_element_22)" transform="matrix(0.7071067690849304,0.7071067690849304,-0.7071067690849304,0.7071067690849304,50,-515.6854248046875)" opacity="1" style="display: block;"><g transform="matrix(1,0,0,1,400.375,401.375)" opacity="1" style="display: block;"><g opacity="1" transform="matrix(1,0,0,1,0,0)"><path stroke-linecap="butt" stroke-linejoin="miter" fill-opacity="0" stroke-miterlimit="4" stroke="#2B2B2B" stroke-opacity="1" stroke-width="1" d=" M-6.25,4.5 C-6.25,4.5 5.5,-7.25 5.5,-7.25"></path></g></g><g transform="matrix(1,0,0,1,400.031005859375,400.843994140625)" opacity="1" style="display: block;"><g opacity="1" transform="matrix(1,0,0,1,0,0)"><path stroke-linecap="butt" stroke-linejoin="miter" fill-opacity="0" stroke-miterlimit="4" stroke="#2B2B2B" stroke-opacity="1" stroke-width="1" d=" M-6,-6.811999797821045 C-6,-6.811999797821045 5.938000202178955,5.125 5.938000202178955,5.125"></path></g></g><g style="display: none;" transform="matrix(1,0,0,1,401.06201171875,401.375)" opacity="1"><g opacity="1" transform="matrix(1,0,0,1,0,0)"><path stroke-linecap="butt" stroke-linejoin="miter" fill-opacity="0" stroke-miterlimit="4" stroke="#2B7669" stroke-opacity="1" stroke-width="2px" d="M0 0"></path></g><g opacity="1" transform="matrix(1,0,0,1,0,0)"><path stroke-linecap="butt" stroke-linejoin="miter" fill-opacity="0" stroke-miterlimit="4" stroke="#2C2C2C" stroke-opacity="1" stroke-width="2px" d="M0 0"></path></g><g opacity="1" transform="matrix(1,0,0,1,0,0)"><path stroke-linecap="butt" stroke-linejoin="miter" fill-opacity="0" stroke-miterlimit="4" stroke="#2B7669" stroke-opacity="1" stroke-width="1" d=" M-30.812000274658203,30.187999725341797 C-30.812000274658203,30.187999725341797 -30.937999725341797,30.437999725341797 -30.937999725341797,30.437999725341797 C-30.937999725341797,30.437999725341797 -30.812000274658203,30.187999725341797 -30.812000274658203,30.187999725341797z"></path></g></g><g style="display: none;" transform="matrix(1,0,0,1,400.531005859375,401.093994140625)" opacity="1"><g opacity="1" transform="matrix(1,0,0,1,0,0)"><path stroke-linecap="butt" stroke-linejoin="miter" fill-opacity="0" stroke-miterlimit="4" stroke="#2B7669" stroke-opacity="1" stroke-width="1" d=" M-20.30879020690918,-21.121789932250977 C-20.30879020690918,-21.121789932250977 -20.27511978149414,-21.088119506835938 -20.27511978149414,-21.088119506835938 C-20.27511978149414,-21.088119506835938 -20.30879020690918,-21.121789932250977 -20.30879020690918,-21.121789932250977z"></path></g></g></g></g></svg>