<svg xmlns:xlink="http://www.w3.org/1999/xlink" xmlns="http://www.w3.org/2000/svg" viewBox="0 0 100 100" width="100" height="100" preserveAspectRatio="xMidYMid meet" style="width: 100%; height: 100%; transform: translate3d(0px, 0px, 0px);"><defs><clipPath id="__lottie_element_140"><rect width="100" height="100" x="0" y="0"></rect></clipPath></defs><g clip-path="url(#__lottie_element_140)"><g transform="matrix(0.7402600049972534,0,0,1,59.03900146484375,49.875)" opacity="1" style="display: none;"><g opacity="1" transform="matrix(1,0,0,1,0,0)"><path stroke-linecap="butt" stroke-linejoin="miter" fill-opacity="0" stroke-miterlimit="4" stroke="#313232" stroke-opacity="1" stroke-width="1" d=" M-19.25,0.125 C-19.25,0.125 2.671999931335449,0.125 2.671999931335449,0.125"></path></g></g><g transform="matrix(1,0,0,1,50.5620002746582,50.5620002746582)" opacity="1" style="display: none;"><g opacity="1" transform="matrix(1,0,0,1,0,0)"><path stroke-linecap="butt" stroke-linejoin="miter" fill-opacity="0" stroke-miterlimit="4" stroke="#313232" stroke-opacity="1" stroke-width="1" d=" M10.812000274658203,-0.25 C10.812000274658203,-0.25 4.688000202178955,-6.375 4.688000202178955,-6.375"></path></g></g><g transform="matrix(1,0,0,1,50.8120002746582,59.3120002746582)" opacity="1" style="display: none;"><g opacity="1" transform="matrix(1,0,0,1,0,0)"><path stroke-linecap="butt" stroke-linejoin="miter" fill-opacity="0" stroke-miterlimit="4" stroke="#313232" stroke-opacity="1" stroke-width="1" d=" M10.625,-9.687999725341797 C10.625,-9.687999725341797 4.5,-3.437999963760376 4.5,-3.437999963760376"></path></g></g><g style="display: block;" transform="matrix(0.7402600049972534,0,0,1,59.03900146484375,49.875)" opacity="1"><g opacity="1" transform="matrix(1,0,0,1,0,0)"><path stroke-linecap="butt" stroke-linejoin="miter" fill-opacity="0" stroke-miterlimit="4" stroke="#1E1D22" stroke-opacity="1" stroke-width="1" d=" M-19.25,0.125 C-19.25,0.125 2.671999931335449,0.125 2.671999931335449,0.125 C2.671999931335449,0.125 -19.25,0.125 -19.25,0.125z"></path></g></g><g style="display: block;" transform="matrix(1,0,0,1,50.5620002746582,50.5620002746582)" opacity="1"><g opacity="1" transform="matrix(1,0,0,1,0,0)"><path stroke-linecap="butt" stroke-linejoin="miter" fill-opacity="0" stroke-miterlimit="4" stroke="#1E1D22" stroke-opacity="1" stroke-width="1" d=" M10.812000274658203,-0.25 C10.812000274658203,-0.25 4.688000202178955,-6.375 4.688000202178955,-6.375"></path></g></g><g style="display: block;" transform="matrix(1,0,0,1,50.8120002746582,59.3120002746582)" opacity="1"><g opacity="1" transform="matrix(1,0,0,1,0,0)"><path stroke-linecap="butt" stroke-linejoin="miter" fill-opacity="0" stroke-miterlimit="4" stroke="#1E1D22" stroke-opacity="1" stroke-width="1" d=" M10.625,-9.687999725341797 C10.625,-9.687999725341797 4.5,-3.437999963760376 4.5,-3.437999963760376"></path></g></g></g></svg>