<svg xmlns="http://www.w3.org/2000/svg" viewBox="0 0 186.31 49.45"><defs><style>.cls-1{fill:#111;}.cls-2{fill:#c9b6e7;opacity:0.51;}.cls-3{fill:#b9b5e8;opacity:0.95;}.cls-4{fill:#a289d7;}.cls-5{fill:none;}</style></defs><g id="Layer_2" data-name="Layer 2"><g id="Layer_1-2" data-name="Layer 1"><polygon class="cls-1" points="70.49 42.1 70.49 15.54 59.96 15.54 59.96 11.07 86.05 11.07 86.05 15.54 75.47 15.54 75.47 42.1 70.49 42.1"/><path class="cls-1" d="M132.59,42.1h-4.93V27.42c0-3.8-2.13-5.67-6.38-5.67s-6.42,1.87-6.42,5.67V42.1h-4.93V27.2c0-6.21,3.75-9.92,11.35-9.92S132.59,21,132.59,27.2Z"/><path class="cls-1" d="M156.84,42.1H136.35V38.7s12.35-15.66,13-16.51H136.67V17.73h19.85v3s-11,13.87-13.21,16.87h13.53Z"/><path class="cls-1" d="M173.35,17.32c-.45,0-.91,0-1.39,0-7.6,0-11.35,3.71-11.35,9.92V42.1h4.93V27.42c0-3.8,2.12-5.67,6.42-5.67a12.24,12.24,0,0,1,1.39.08Z"/><path class="cls-1" d="M88,27.38c0-3.8,2.26-5.72,6.73-5.72s6.65,1.87,6.65,5.67v.32H88Zm13,8.47c-.82,1.51-2.89,2.27-6.19,2.27Q88,38.12,88,32.49v-.9h18.13V27.06c0-6.07-3.93-9.78-11.4-9.78S83.28,21,83.28,27.06v5.7c0,6.07,3.8,9.74,11.53,9.74,5.1,0,8.53-1.59,10.19-4Z"/><path class="cls-1" d="M183.11,22.25a2.53,2.53,0,1,1,2.56-2.52,2.54,2.54,0,0,1-2.56,2.52m0-5.68a3.16,3.16,0,1,0,3.2,3.16,3.18,3.18,0,0,0-3.2-3.16"/><path class="cls-1" d="M183.21,20h-.71V18.51h.71a.74.74,0,1,1,0,1.47m-.06-1.89H182v3.28h.54v-1h.9l.56,1h.56l-.64-1.14c1-.43,1-2.14-.73-2.14"/><path class="cls-2" d="M16.16,34.41l-.5,0a18.49,18.49,0,0,0-4.05.58,17.94,17.94,0,0,0-5.87,3.22,3.82,3.82,0,0,1-.56-.14,7.86,7.86,0,0,1-1.94-.92A18.62,18.62,0,0,1,.68,30.5a14.79,14.79,0,0,1,15,3.35s0,0,0,0c.18.17.34.35.5.53"/><path class="cls-2" d="M48.82,29.73a25.14,25.14,0,0,1-1.43,4.68,37.4,37.4,0,0,1-3.81-3.14l.35-.26a4.41,4.41,0,0,1,.5-.3,8.06,8.06,0,0,1,4.39-1"/><path class="cls-2" d="M43.58,31.27A23.06,23.06,0,0,0,40,35.19a32,32,0,0,1-4.8,4.72c-.39.31-.78.6-1.19.87a4.25,4.25,0,0,1-.58.35,22.08,22.08,0,0,1-4.92-2.3c-1-.61-1.91-1.28-2.9-1.88a18.57,18.57,0,0,0-8.87-2.52,5.43,5.43,0,0,0-.57,0l.57-.53c2.32-3,6.49-9,9-11.85,3.22-3.63,8.05-3.84,10.72-1.16a25.29,25.29,0,0,1,4.25,5.82,28,28,0,0,0,2.52,4.2,2.5,2.5,0,0,0,.35.38"/><path class="cls-3" d="M47.39,34.41a26,26,0,0,1-5.26,7.72c-.2.2-.39.39-.6.57A25.65,25.65,0,0,1,34,41.33l-.58-.2a4.25,4.25,0,0,0,.58-.35c.41-.27.8-.56,1.19-.87A32,32,0,0,0,40,35.19a23.06,23.06,0,0,1,3.59-3.92,37.4,37.4,0,0,0,3.81,3.14"/><path class="cls-3" d="M5.74,38.23c-.19.14-.37.26-.56.41l-.62.52-.26-.34L3.24,37.17a7.86,7.86,0,0,0,1.94.92,3.82,3.82,0,0,0,.56.14"/><path class="cls-3" d="M33.42,41.13a6.71,6.71,0,0,1-1,.49,9.06,9.06,0,0,1-4.29.44A15.22,15.22,0,0,1,19,37.68c-1-1-1.86-2.21-2.84-3.27a5.43,5.43,0,0,1,.57,0A18.57,18.57,0,0,1,25.6,37c1,.6,1.91,1.27,2.9,1.88a22.08,22.08,0,0,0,4.92,2.3"/><path class="cls-3" d="M16.16,34.41a14.41,14.41,0,0,1-5,3.21,9.26,9.26,0,0,1-5.45.61A17.94,17.94,0,0,1,11.61,35a18.49,18.49,0,0,1,4.05-.58l.5,0"/><path class="cls-4" d="M41.53,42.7a24.64,24.64,0,0,1-37-3.54l.62-.52c.19-.15.37-.27.56-.41a9.26,9.26,0,0,0,5.45-.61,14.41,14.41,0,0,0,5-3.21c1,1.06,1.83,2.23,2.84,3.27a15.22,15.22,0,0,0,9.12,4.38,9.06,9.06,0,0,0,4.29-.44,6.71,6.71,0,0,0,1-.49l.58.2a25.65,25.65,0,0,0,7.53,1.37"/><path class="cls-5" d="M3.47,26.94c0-.18,0-.36-.05-.53"/><path class="cls-4" d="M3.52,26h0a12.19,12.19,0,0,1-3.36.69v0c0-.11,0-.21,0-.32,0-.27,0-.55-.07-.82v0c0-.28,0-.58,0-.86a24.65,24.65,0,0,1,49.3,0c0,.25,0,.51,0,.76v0c0,.3,0,.6-.08.9,0,.11,0,.21,0,.32v0a13,13,0,0,1-3.4-.7c.07-.63.08-1.28.08-1.28a21.2,21.2,0,0,0-42.4,0S3.45,25.33,3.52,26Z"/></g></g></svg>