<svg xmlns="http://www.w3.org/2000/svg" xmlns:xlink="http://www.w3.org/1999/xlink" version="1.1" id="Layer_1" x="0px" y="0px" viewBox="0 0 463.3 505" style="enable-background:new 0 0 463.3 505;" xml:space="preserve" width="463.3"  height="505" >
<style type="text/css">
	.st0{fill:#1E1C20;}
</style>
<g>
	<path class="st0" d="M325.2,246.2h-68.5v77.1c0,35.4,12.3,60.1,33.8,77.3l0-10.8c-15.7-18.2-18-39-18-56.9v-20.2h25.9v88.1   c0,32.1-9,73.1-66.5,98.7c-54.5-24.4-65.4-62.5-66.4-93.8c25.7-17.3,40.7-43.3,40.7-82.3v-10.7h25.7h16.4v-15.9h-16.4h-25.7v0   h-15.8v0h-40.8v92.6c0,3.2,0.1,6.4,0.3,9.5v0c6.2-4,11.3-8.3,15.6-12.8v-73.4h25v20.2c0,26.8-5,60-52.8,81.4   c-47.8-21.4-52.8-54.6-52.8-81.4v-70.9h52.8h52.8v27.1h15.8v-42.9h-68.5H69.2v77.1c0,51.5,26.1,80.3,68.5,96.4   c4.8-1.8,9.4-3.8,13.8-5.9c7.3,46.8,36.6,74.7,80.4,91.2c43.8-16.5,73-44.3,80.5-90.8c4.1,2,8.4,3.8,12.9,5.5   c42.5-16.1,68.5-44.8,68.5-96.4v-77.1H325.2z M378,332.8c0,26.8-5,60-52.8,81.4c-4.4-2-8.4-4-12-6.1c0.7-5.9,1-12.1,1-18.7v-92.6   h-41.8v-34.8h52.8H378V332.8z"/>
	<path class="st0" d="M100.3,204.2v-3.1c2.6-1.2,4.3-2.1,5-2.8c0.4-0.3,0.7-0.8,0.9-1.4c0.4-1.1,0.6-3.6,0.8-7.3   c0.2-5.6,0.4-8.9,0.4-10v-33c0-5.5-0.1-11-0.4-16.3c-0.1-3.9-0.4-6.2-0.9-6.9c-0.5-0.7-1.2-1.2-2.3-1.6c-1.1-0.3-4.1-0.5-9.1-0.6   v-3.9c10.4,0.2,16.7,0.4,19.2,0.4c2.7,0,8.8-0.1,18.3-0.4v3.9c-5,0.1-8.1,0.3-9.2,0.6c-1.1,0.4-1.8,0.8-2.3,1.5   c-0.5,0.8-0.8,2.8-1,5.9c-0.1,0.8-0.2,6.6-0.4,17.4v41.2c0,4.3,0.1,7.8,0.4,10.5c4.9,0.2,5.4,0.4,10.2,0.4c12,0,21-0.7,25.8-2.2   c0.6-1.2,1.1-2.6,1.5-4.2l2.6-10.1h4.2c-0.9,6.1-1.9,13.2-2.7,21.4c-1.7,0.3-3.1,0.5-4.1,0.6c-2.2,0.1-5.6,0.1-10.2,0.1l-34-0.4   C108.7,203.9,104.5,204,100.3,204.2"/>
	<path class="st0" d="M209.3,200.4v3.9c-9-0.2-14.9-0.4-17.8-0.4l-19.6,0.4v-3.9c4.9-0.1,8-0.3,9-0.7c1.1-0.4,1.9-0.8,2.3-1.4   c0.5-0.8,0.8-2.8,0.9-5.9c0-0.9,0.2-6.7,0.4-17.4v-28.3c0-5.5-0.1-10.9-0.4-16.2c-0.1-3.9-0.4-6.1-0.9-6.9   c-0.5-0.7-1.3-1.3-2.3-1.6c-1.1-0.3-4.1-0.6-9-0.6v-3.9c8,0.3,14.3,0.4,18.7,0.4c4.2,0,10.4-0.1,18.6-0.4v3.9c-5,0.1-8,0.3-9.1,0.6   c-1.1,0.3-1.8,0.8-2.2,1.5c-0.5,0.8-0.8,2.8-1,5.9c-0.1,0.8-0.2,6.6-0.4,17.3V175c0,5.6,0.1,11,0.2,16.2c0.1,3.9,0.4,6.1,0.9,6.9   c0.5,0.7,1.3,1.3,2.3,1.6C201.2,200.1,204.3,200.3,209.3,200.4 M197.1,129.3c-0.1,0.8-0.2,6.6-0.4,17.3V175"/>
	<path class="st0" d="M223.4,204.2v-3.9c4.5,0,7.4-0.4,8.8-1c0.6-0.2,1-0.6,1.3-1.2c0.4-0.8,0.7-2.9,0.9-6.4   c0.2-5.4,0.4-10,0.4-13.9v-49.7c0-1.4-0.1-2.2-0.3-2.6c-0.3-0.7-1.1-1.6-2.3-2.6c-0.8-0.6-1.6-1.1-2.7-1.3c-1-0.2-3.2-0.3-6.7-0.3   v-3.9c7.3,0.2,12,0.4,13.9,0.4c3.2,0,6.4-0.1,9.6-0.4c3.6,4.5,6.2,7.8,7.9,10l13,15.5l19,22.2c6.1,7.1,10.9,12.7,14.6,16.7   c2.3,2.7,4.3,4.8,5.9,6.3v-44.5c0-4-0.1-8.7-0.4-14c-0.2-3.4-0.5-5.5-0.8-6.3c-0.3-0.6-0.8-1-1.4-1.2c-1.4-0.6-4.3-0.9-8.8-0.9   v-3.9c5,0.2,10.1,0.4,15.3,0.4c4.9,0,9.3-0.1,13.2-0.4v3.9c-4.5,0-7.4,0.3-8.8,0.9c-0.6,0.3-1,0.7-1.3,1.3   c-0.4,0.8-0.7,2.9-0.9,6.4c-0.2,5.3-0.4,10-0.4,13.9v29.4c0,6,0.1,17.1,0.4,33.3h-6.3l-1.6-1.7c-0.2,0-0.8-0.7-1-0.9   c-0.3-0.2-1.1-1-2.4-2.5c-3.5-3.9-6.1-6.8-7.8-8.8l-8.2-10.1l-45.3-52.3v47.4c0,4,0.1,8.8,0.4,14.3c0.2,3.4,0.5,5.5,0.8,6.3   c0.3,0.6,0.7,1,1.4,1.2c1.4,0.6,4.4,0.9,8.8,1v3.9c-3.7-0.2-7.9-0.4-12.4-0.4C234.5,203.9,229.2,204,223.4,204.2"/>
	<path class="st0" d="M372.3,200.4v3.9c-9-0.2-14.9-0.4-17.8-0.4l-19.6,0.4v-3.9c5-0.1,8-0.3,9.1-0.7c1.1-0.4,1.8-0.8,2.3-1.4   c0.5-0.8,0.8-2.8,0.9-5.9c0.1-0.9,0.2-6.7,0.4-17.4v-28.3c0-5.5-0.1-10.9-0.4-16.2c-0.1-3.8-0.4-6.1-0.9-6.9   c-0.5-0.7-1.2-1.3-2.3-1.6c-1.1-0.3-4.1-0.6-9.1-0.6v-3.9c8.1,0.3,14.3,0.4,18.7,0.4c4.2,0,10.4-0.1,18.6-0.4v3.9   c-5,0.1-8,0.3-9.1,0.6c-1.1,0.3-1.8,0.8-2.2,1.5c-0.5,0.8-0.8,2.8-0.9,5.9c-0.1,0.8-0.2,6.6-0.4,17.3V175c0,5.6,0,11,0.2,16.2   c0.1,3.9,0.4,6.1,0.9,6.9c0.5,0.7,1.3,1.3,2.3,1.6C364.2,200.1,367.3,200.3,372.3,200.4"/>
	<path class="st0" d="M463.3,193.4l-2.5,5.7c-5,2.4-9.9,4.1-14.6,5.2c-4.8,1.1-10,1.6-15.6,1.6c-6.6,0-12.7-0.8-18.4-2.4   c-5.6-1.6-10.6-3.8-14.8-6.8c-4.2-2.9-7.7-6.2-10.4-9.9c-2.7-3.7-4.7-7.6-6.1-11.9c-1.4-4.3-2.1-9-2.1-14.1   c0-12.9,4.7-23.6,14.2-32.1c9.5-8.5,22.4-12.8,38.8-12.8c3.9,0,7.5,0.2,10.8,0.6c3.3,0.4,7.3,1.2,12,2.4c4.8,1.2,7.6,1.9,8.7,2.1   c-0.9,2.2-1.6,4.4-2.1,6.5c-0.7,3.4-1.1,7.4-1.4,12H456l-0.1-7.1c-0.4-4-2.7-7-7-8.9c-4.2-1.9-10.4-2.9-18.5-2.9   c-6.1,0.1-11.2,0.8-15.4,2.2c-4.2,1.4-7.9,3.6-11.2,6.6c-3.2,3-5.9,6.8-7.9,11.5c-2,4.6-3.1,10.4-3.1,17.5   c0,12.3,3.9,22.1,11.8,29.6c7.9,7.5,18.3,11.2,31.2,11.2c5.8,0,11.2-0.8,16.2-2.3c3.4-1,6.8-2.7,10.1-4.9L463.3,193.4z"/>
	<path class="st0" d="M84.5,193.4l-2.5,5.7c-5,2.4-9.9,4.1-14.6,5.2c-4.8,1.1-10,1.6-15.6,1.6c-6.6,0-12.7-0.8-18.4-2.4   c-5.6-1.6-10.6-3.8-14.8-6.8c-4.2-2.9-7.7-6.2-10.4-9.9c-2.7-3.7-4.7-7.6-6.1-11.9c-1.4-4.3-2.1-9-2.1-14.1   c0-12.9,4.7-23.6,14.2-32.1C23.7,120.2,36.6,116,53,116c3.9,0,7.5,0.2,10.8,0.6c3.3,0.4,7.3,1.2,12,2.4c4.7,1.2,7.7,1.9,8.7,2.1   c-0.9,2.2-1.6,4.4-2.1,6.5c-0.7,3.4-1.1,7.4-1.4,12h-3.8l-0.1-7.1c-0.4-4-2.7-7-7-8.9c-4.2-1.9-10.3-2.9-18.5-2.9   c-6.1,0.1-11.2,0.8-15.4,2.2c-4.2,1.4-8,3.6-11.2,6.6c-3.2,3-5.9,6.8-7.9,11.5c-2,4.6-3.1,10.4-3.1,17.5c0,12.3,3.9,22.1,11.8,29.6   c7.8,7.5,18.3,11.2,31.2,11.2c5.8,0,11.2-0.8,16.2-2.3c3.4-1,6.8-2.7,10.1-4.9L84.5,193.4z"/>
	<path class="st0" d="M36.6,6.1V2c4.5,0.3,8.7,0.5,12.8,0.5c4.1,0,8.1-0.2,11.9-0.5c3.8,8.1,7.2,15.2,10.3,21.3l24.2,47.4l21.9-43.4   c6-11.8,9.9-20.3,11.9-25.3c4.5,0.3,8.3,0.5,11.4,0.5c2.8,0,7.4-0.2,13.8-0.5v4.1c-5.1,0.1-8.2,0.3-9.2,0.6   c-1.1,0.4-1.8,0.8-2.3,1.5c-0.6,0.8-0.9,2.8-1,5.8c0,0.8-0.1,6.5-0.3,17.2v28c0,5.5,0.1,10.9,0.3,16.1c0.1,3.8,0.4,6.1,0.9,6.8   c0.5,0.7,1.3,1.3,2.3,1.6c1.1,0.4,4.1,0.6,9.2,0.7v3.9c-8.6-0.3-14.6-0.5-18.1-0.5c-2.8,0-9.1,0.1-18.9,0.5v-3.9   c5.1-0.1,8.1-0.3,9.3-0.7c1.1-0.4,1.8-0.8,2.2-1.4c0.5-0.8,0.9-2.8,0.9-5.9c0-0.9,0.1-6.6,0.3-17.3V14.6l-22,43.9   c-3.4,6.8-6.1,12.4-8.1,16.5c-1.4,3-3.5,7.9-6.4,14.5h-2.5c-0.5-1.6-1.1-2.8-1.5-3.7L85.6,77L55.1,16.7v42.5   c0,5.5,0.2,10.9,0.5,16.1c0.1,3.8,0.4,6.1,0.9,6.8c0.5,0.7,1.3,1.3,2.4,1.6c1.1,0.4,4.1,0.6,9.2,0.7v3.9l-15.4-0.5l-16.1,0.5v-3.9   c5-0.1,8.1-0.3,9.2-0.7c1.1-0.4,1.9-0.8,2.3-1.4c0.5-0.8,0.8-2.8,1-5.9c0-0.9,0.2-6.6,0.3-17.2v-28c0-5.5-0.1-10.8-0.3-16.1   c-0.1-3.8-0.4-6.1-0.9-6.8c-0.5-0.7-1.3-1.2-2.3-1.6C44.6,6.3,41.6,6.1,36.6,6.1"/>
	<path class="st0" d="M172.4,87.9c3.6,0,9,0.1,16.2,0.4v-3.9c-4,0-6.7-0.2-8.3-0.6c-1-0.2-1.7-0.6-2.2-1.1c-0.3-0.4-0.5-0.9-0.5-1.4   c0-1.3,0.6-3.3,1.9-6.2l6.9-15.7h37l7.9,18.7c0.6,1.4,0.9,2.6,0.9,3.5c0,0.5-0.2,1-0.6,1.4c-0.3,0.4-1,0.7-2.1,0.9   c-1,0.2-3.9,0.3-8.7,0.4v3.9l20.6-0.4c2.6,0,7.3,0.1,14,0.4v-3.9c-3.4,0-5.6-0.3-6.6-0.7c-1-0.4-1.8-1.4-2.7-2.8   c-1.5-2.6-4.4-8.8-8.8-18.7L210,1.2h-4c-5.7,13.1-9.5,21.5-11.2,25.2l-16,34.3c-4.8,9.9-7.6,15.6-8.3,17.1c-1.3,2.7-2.3,4.3-3,4.9   c-0.7,0.6-1.5,1-2.3,1.3c-0.8,0.2-2.9,0.4-6.3,0.4v3.9C163.7,88,168.2,87.9,172.4,87.9 M204.8,17.9l16,36.6h-32.3L204.8,17.9z"/>
	<path class="st0" d="M308.6,15c2.5-3.8,3.8-6.1,3.8-6.9c0-0.7-0.4-1.3-1.2-1.6c-0.8-0.3-4.5-0.6-9.4-0.6V2   c7.9,0.3,12.5,0.4,16.9,0.4c4.2,0,6.5-0.1,14.9-0.4v3.9c-5.1,0.1-6.9,0.3-8.2,0.6c-1.3,0.3-2.4,0.8-3.3,1.5c-1.1,0.8-2.7,2.8-5,5.9   l-18.7,26.8c-3.6,5.6-5.6,9.1-6.1,10.4c-0.5,1.3-0.7,2.5-0.7,3.6v4.6c0,5.5,0.1,10.9,0.4,16.1c0.1,3.8,0.4,6.1,0.9,6.8   c0.5,0.7,1.3,1.2,2.3,1.6c1,0.3,4.1,0.6,9,0.7v3.9c-6.9-0.3-12.9-0.4-18-0.4c-4.8,0-11.3,0.1-19.2,0.4v-3.9c5-0.1,8-0.3,9.1-0.7   c1.1-0.4,1.8-0.9,2.2-1.4c0.5-0.8,0.9-2.8,1-5.8c0-0.8,0.2-6.6,0.4-17.2v-7.1c-0.9-1.8-1.8-3.4-2.6-4.9c-0.6-1-2.8-4.5-6.5-10.4   l-16.3-23c-2-3.1-3.5-5.1-4.5-5.9c-0.8-0.6-1.9-1.1-3.1-1.5c-1.3-0.3-3-0.6-8-0.6V2c8.4,0.3,10.9,0.4,15.2,0.4   c4.4,0,15.7-0.1,23.6-0.4v3.9c-4.9,0.1-9.2,0.3-10.1,0.6c-0.9,0.3-1.3,0.9-1.4,1.6c0,0.7,1,3,3.2,6.9l19.1,30.8L308.6,15z"/>
	<path class="st0" d="M346.9,22c2.6-5.4,6.4-9.6,11.5-12.5c5.1-2.9,11-4.3,17.8-4.3c4.7,0,9,0.7,13.1,2c4,1.4,7.3,3.1,9.8,5.1   c2.5,2,4.7,4.4,6.5,7.1c1.8,2.7,3.3,5.7,4.4,9c1.8,5.5,2.7,11.4,2.7,17.8c0,7.6-1.2,14.3-3.7,20c-2.5,5.8-6.2,10.2-11.3,13.4   c-5.1,3.2-11,4.8-17.8,4.8c-4.9,0-9.4-0.8-13.5-2.3c-4-1.6-7.7-4-11-7.3c-3.3-3.3-5.9-7.4-8-12.2c-1.2-2.9-2.3-6.3-3.1-10.3   c-0.8-4-1.2-7.9-1.2-11.7C343,33.6,344.3,27.4,346.9,22 M332.8,62.8c2.1,5.8,5.1,10.8,9.1,14.9c4,4.1,8.9,7.1,14.6,9.2   c5.8,2,12,3.1,18.7,3.1c14.7,0,26.8-4.5,36.4-13.6c9.6-9.1,14.4-20.4,14.4-34.1c0-4.3-0.5-8.3-1.5-12c-0.9-3.8-2.2-7-3.9-9.7   c-2.1-3.7-5-7.1-8.7-10.2c-3.7-3.1-8.4-5.6-14.1-7.5C392.3,0.9,385.9,0,378.9,0c-7.6,0-14.4,1.1-20.2,3.3   c-5.9,2.2-11.2,5.5-15.9,9.8c-4.7,4.4-8,9.2-10,14.6c-2,5.4-3,11.4-3,17.8C329.7,51.2,330.7,57,332.8,62.8"/>
</g>
</svg>