<svg xmlns="http://www.w3.org/2000/svg" xmlns:xlink="http://www.w3.org/1999/xlink" version="1.1" id="Layer_1" x="0px" y="0px" viewBox="0 0 241.9 365" style="enable-background:new 0 0 241.9 365;" xml:space="preserve" width="241.9"  height="365" >
<style type="text/css">
	.st0{fill:#1E1C21;}
</style>
<g id="XMLID_1_">
	<path id="XMLID_5_" class="st0" d="M0,315.2c0-23.2,0-46.4,0-69.6c0.6,0,1.2,0.1,1.8,0.1c21.8,0,43.6,0,65.5,0   c0.6,0,1.2-0.1,1.8-0.1c0.8-2.6,2.5-4.1,4.8-5.1c0.9-0.4,1.8-0.7,2.6-1.1c0.4-0.2,0.7-0.6,1-1c-0.1-0.1-0.2-0.3-0.2-0.4   c-1.3,0.1-2.5,0.3-3.8,0.3s-2.6,0.1-3.8-0.2c-2.7-0.6-4.2-2.8-3.9-5.6c0.1-0.6,0.1-1.2,0.2-2c-0.9,0-1.6,0-2.4,0   c-5.4,0-10.8,0-16.2,0c-1.5,0-2.5-0.4-3.6-1.5c-14-14.1-28.1-28.2-42.2-42.3c-0.5-0.5-1.1-1-1.7-1.4c0-45.2,0-90.3,0-135.5   c0.3-0.2,0.7-0.4,1-0.7c3.6-3.4,7.2-6.9,10.8-10.3C22.8,28.3,33.9,17.7,44.9,7c2.4-2.3,4.7-4.7,7.1-7c46,0,92,0,137.9,0   c0.5,0.5,0.9,1,1.4,1.5c4.1,4,8.3,7.9,12.4,11.9c7.9,7.6,15.7,15.1,23.6,22.7c4.9,4.7,9.7,9.4,14.4,13.9c0,25.3,0,50.4,0,75.7   c-22.9,0-45.5,0-68.3,0c0,0.5,0,1,0,1.4c-0.2,4.8-4.2,7.4-8.7,5.7c-1.5-0.5-3.2-0.7-4.8-0.9c-1.3-0.2-2.6-0.1-3.9-0.3   c-3.6-0.5-7.3-1-11-1.5c0.3,0.4,0.6,0.8,1,1.2c2.8,3.4,6.5,5.6,10.1,7.8c1.2,0.7,2.4,1.1,3.8,1.1c11.5,0,22.9,0,34.4-0.1   c1.6,0,2.6,0.5,3.7,1.6c14,14.1,28,28.1,42.1,42.1c1.2,1.1,1.6,2.3,1.6,3.9c0,41.7,0,83.3,0,125c0,0.7,0,1.5,0,2.3   c-17.4,16.7-34.7,33.4-52,50.1c-45.9,0-91.8,0-137.7,0c-2.5-2.5-5-4.9-7.5-7.3c-14-13.5-28-27-42-40.4C1.8,316.5,0.9,315.9,0,315.2   z M235.9,119.5c0-0.9,0-1.6,0-2.3c0-20.8,0-41.6,0-62.4c0-1.4-0.5-2.4-1.5-3.4C219.2,36.8,204,22.2,188.8,7.6   c-1.1-1.1-2.2-1.6-3.8-1.5c-42.8,0-85.5,0-128.3,0c-1.5,0-2.6,0.4-3.6,1.4c-3.7,3.6-7.4,7.2-11.2,10.8c-8.4,8-16.7,16.1-25.1,24.1   c-3.6,3.5-7.3,7-10.9,10.5c0,0.4,0,0.8,0,1.1c0,42.4,0,84.7,0,127.1c0,1.2,0.4,2,1.2,2.8c13.1,13,26.2,26.1,39.2,39.2   c0.9,0.9,1.9,1.4,3.2,1.3c7.6-0.1,15.1,0,22.7,0c0.6,0,1.2,0.1,2.2,0.1c-2.9,2.7-4.2,5.8-5.1,9.6c1.5,0.1,2.6,0.2,3.7,0.1   c5.7-0.3,11-1.8,15.9-4.6c1.6-0.9,3.3-0.8,4.9,0.1c1.7,1,2.1,2.4,1.2,4.2c-0.4,0.8-0.9,1.5-1.4,2.2c-3.1,3.8-7.2,5.7-11.9,6.5   c-2.3,0.4-4.7,1-6.9,1.8c-1.5,0.5-2.2,1.7-1.8,2.8c0.3,0.8,0.9,1.6,1.5,2.3s1.4,1.3,2.1,1.9c-0.1,0.1-0.2,0.3-0.2,0.4   c-23.4,0-46.9,0-70.5,0c0,0.9,0,1.5,0,2.2c0,18.7,0,37.4-0.1,56.1c0,1.4,0.4,2.4,1.4,3.4c9.3,8.9,18.6,17.8,27.9,26.8   c5.9,5.7,11.8,11.4,17.6,17.1c1.1,1,2.2,1.6,3.8,1.6c42.8,0,85.7,0,128.5,0c1.4,0,2.4-0.4,3.4-1.4c6.5-6.3,13-12.5,19.4-18.7   c8.7-8.4,17.4-16.7,26.1-25.1c1.1-1.1,1.6-2.1,1.6-3.7c0-40,0-79.9,0-119.9c0-1.5-0.4-2.5-1.5-3.6c-13-12.9-26-25.9-38.9-38.9   c-1.1-1.1-2.1-1.5-3.6-1.5c-10,0.1-19.9,0-29.9,0c-0.8,0-1.7,0-2.4-0.4c-4.3-2.7-8.7-5.3-12.9-8.3c-3.2-2.3-5.7-5.5-7.7-8.9   c-1-1.7-1.6-3.5-0.5-5.5c0.5,0.1,1,0.1,1.4,0.3c6.2,3.2,13,3.9,19.8,4.3c2.2,0.1,4.3,0.3,6.4,1.3c1.8,0.8,3.4-0.4,3-2.4   c-0.2-0.9-0.6-1.8-1.2-2.6c-1-1.5-2.2-2.9-3.4-4.5C188.5,119.5,212,119.5,235.9,119.5z"/>
	<path id="XMLID_11_" class="st0" d="M95.8,205.3c-0.1-0.1,0.2,0.1,0.2,0.2c0.4,4.6,0.1,8.7-4.7,10.6c-3.3,1.3-6.5,2.1-10.1,2.1   c-9.5-0.2-19-0.1-28.4,0c-1.4,0-2.4-0.4-3.4-1.4c-11.8-11.9-23.7-23.8-35.5-35.7c-0.9-0.9-1.3-1.8-1.3-3c0-40.2,0-80.5,0-120.7   c0-1.3,0.4-2.1,1.3-3c14.2-13.6,28.3-27.2,42.5-40.8c0.7-0.7,1.4-1.1,2.3-1c0.3,0,0.5,0,0.8,0c41,0,82,0,123,0   c1.5,0,2.5,0.3,3.6,1.4c6.7,6.6,13.5,13.1,20.3,19.6c7.1,6.8,14.1,13.6,21.2,20.4c1.3,1.2,1.9,2.4,1.9,4.2c-0.1,17.4,0,34.8,0,52.2   c0,0.8,0,1.6,0,2.5c-0.9,0-1.5,0.1-2.2,0.1c-15.8,0-31.6,0.1-47.5,0.1c-6.9,0-13.8,0-20.7,0c-1.3,0-2.3-0.3-3.4-1.1   c-4.3-3.2-8.9-5.8-14-7.4c-1.5-0.5-3-1.3-4.4-2.1c-1-0.5-1.7-1.3-1.7-2.8c1.5-1.2,3.3-1.5,5.1-1.5c2.1,0,4.2,0.4,6.3,0.6   c1.4,0.1,2.9,0.1,4.2-0.2c2.1-0.5,2.8-2.3,1.3-3.9c-1.4-1.5-3.2-2.8-5-3.8c-2.8-1.5-5.8-2.7-8.7-4c-1.3-0.6-2.6-1.3-3.2-2.7   c-0.4-0.8-0.7-1.6-0.8-2.5c-0.2-1.7,0.4-3.2,2.8-2.8c1.3,0.2,2.7,0.3,4.1,0.2c2-0.1,2.5-1.1,1.4-2.7c-2.2-3.2-5.3-5.5-8.6-7.4   c-0.6-0.4-1.3-0.7-1.8-1c0-1.4,0.9-1.8,1.7-2.4c0.3-0.2,0.6-0.4,0.9-0.5c3-1.6,3.2-2.9,0.6-5.1c-1.2-1-2.6-1.8-3.7-2.8   c-1.2-1-2.5-2.1-3.5-3.4c-1.5-1.8-1.2-2.6,0.5-4.1c0.9-0.8,1.9-1.5,2.7-2.5c1.3-1.5,0.8-2.4-1.1-2.8c-1-0.2-2-0.3-3-0.6   c-2.3-0.8-2.6-2.7-0.9-4.5c1-1,2.4-1.7,2.8-3.5c-0.6-0.2-1.1-0.7-1.7-0.7c-2.8,0-3.8-1.8-4.5-4c-0.7-2.3-1.1-4.6-1.6-7   c-0.2-0.7-0.3-1.4-0.5-2.2c-1.3,0.1-1.3,1-1.5,1.8c-0.6,2.2-1,4.5-1.6,6.8c-0.4,1.4-0.9,2.9-1.5,4.2c-0.7,1.5-1.8,2.3-3.5,2.4   c-0.6,0-1.2,0.3-1.8,0.5c-0.3,1.3,0.5,1.9,1.1,2.5c0.9,0.8,1.9,1.5,2.9,2.3c1.3,1.1,1.4,1.9,0.2,3.1c-1.7,1.7-3.6,3.1-5.5,4.6   c-1.4,1.1-3,2.1-4.4,3.3c-0.5,0.4-1,1.4-0.9,1.9c0.2,0.5,1.1,1,1.7,1.1c1.4,0.3,2.8,0.3,4.3,0.4c1.2,0.1,2.3,0.3,3.1,1.4   c-0.3,1.6-1.6,2.1-2.8,2.4c-3.9,1.1-7.2,3.3-10.1,6.1c-0.8,0.8-1.5,1.6-2.1,2.5c-0.4,0.6-0.4,1.3-0.7,2.4c1.2,0.2,2.1,0.4,3,0.4   c1,0,2-0.2,3.1-0.3c2.3-0.2,3.3,0.9,2.9,3.2c-0.3,2.1-1.6,3.6-3.5,4.5c-2.2,1-4.4,2-6.5,2.9c-2.2,0.9-4,2.3-5.6,4.1   c-0.5,0.6-0.9,1.4-1.4,2.5c1.1,0.3,1.9,0.7,2.6,0.7c2.3,0.1,4.6,0.2,6.9,0.1c1.3-0.1,2.6-0.7,3.9-1c1.1-0.2,2.3-0.6,3.4-0.4   c2.5,0.3,3.5,2.5,1.9,4.5c-1,1.3-2.3,2.6-3.7,3.4c-4.3,2.5-8.8,4.6-13.1,7.1c-5.6,3.2-11.1,6.7-15.9,11.1c-1,0.9-1.9,1.8-2.6,2.8   c-0.5,0.7-0.9,1.6-1,2.4c-0.3,1.9,1.2,3,3,2.4c0.3-0.1,0.5-0.2,0.7-0.3c2.3-1.2,4.8-1.4,7.4-1c4.2,0.7,8.3-0.4,12.2-1.7   c1.3-0.4,2.3-1.6,3.5-2.5c0.7-0.5,1.5-1.1,2.3-1.6c1.7,1.9,1.7,3.9,1.1,5.8c-0.5,1.5-1.3,2.9-2.2,4.1c-2.2,3-4.8,5.6-7.9,7.6   c-3,1.9-5.9,3.9-9.1,5.5c-6.5,3.5-10.2,8.8-11.5,16c-0.5,2.9-1,5.8-1.3,8.7c-0.2,1.3-0.3,2.7,1,3.7c1.4,0,2.2-0.9,2.8-1.8   c3.3-4.4,7.7-6,13-6c4.2,0,8.1-0.7,11.5-3.4c0.8-0.6,1.9-1,2.7-1.3c1.3,0.7,1.1,1.6,1,2.5c-0.5,2.9-2,5.2-4.3,7   c-1.6,1.2-3.4,2.2-5.2,3.2c-1.7,0.9-3.6,1.7-5.4,2.5c-2.2,1-3.8,2.8-5.4,4.6c-0.8,0.9-0.7,1.1-0.5,2.3c6.7,1.6,13.2,1.5,19.1-2.8   c0.3-0.2,0.6-0.4,0.9-0.5c1.8-0.9,3.2-0.2,3.1,1.9c0,1.4-0.3,2.9-0.9,4.1c-0.9,2-2.3,3.7-4.1,5c-4.6,3.3-9.3,6.4-14.3,9   c-4.5,2.4-8.5,5.5-10.7,10.3c-0.4,0.8-0.9,1.7-0.1,2.9c0.6-0.1,1.4-0.1,2-0.4c3-1.6,6.1-1.4,9.2-0.8c1.5,0.3,2.9,0.7,4.4,0.9   C92,205.4,93.8,205.3,95.8,205.3z"/>
	<path id="XMLID_12_" class="st0" d="M172,241.4c-0.9-4.1-2.3-7.2-5.1-9.6c-1.3-1.2-2.8-2.2-4.4-3c-3.5-1.7-7.2-3.3-10.8-4.9   c-1-0.4-2-0.8-3-1.3c-3.1-1.8-4.2-6.5-2.2-9.9c0.5,0.3,1.2,0.5,1.6,0.9c3.1,3.2,6.8,4.6,11.2,4.4c2.7-0.2,5.1,0.4,7.2,2.2   c0.8,0.7,2,0.9,3.5,1.5c0-1.2,0.2-2,0.1-2.7c-1.8-8.2-5.8-15-13.6-18.9c-5-2.5-9.7-5.6-14.2-8.8c-2-1.5-3.7-3.3-4.8-5.5   c-0.4-0.8-0.9-1.7-0.4-2.9c0.6,0,1.3,0,1.9,0.2c1.4,0.4,2.7,0.9,4,1.5c3.2,1.4,6.4,1.8,9.8,1c2.3-0.6,4.7-0.8,7,0.2   c0.2,0.1,0.5,0.1,0.8,0.1c1.9,0.1,2.7-1.1,1.8-2.7c-0.5-0.9-1.2-1.7-1.9-2.4c-3-2.8-6.5-4.9-10.3-6.5c-1.6-0.7-3.1-1.4-4.6-2.3   c-3.1-1.7-5.2-4.4-6.5-7.6c-0.4-1-0.8-2.1,0.2-3c1-1,2.1-1.5,3.5-1.2c0.9,0.2,1.7,0.6,2.5,0.9c4.9,1.8,9.9,3.5,14.8,5.3   c1.1,0.4,2.1,1,3.2,1.4c1.4,0.6,2.8,1.2,4.2,1.5c2.3,0.5,3.4-0.7,3.2-2.9c-0.5-4.2-1.3-8.3-3.2-12.2c-0.2-0.4-0.4-0.9-0.6-1.4   c0.7,0,1.2-0.1,1.7-0.1c7,0,13.9,0,20.9,0c1.2,0,2,0.3,2.9,1.2c11.9,11.9,23.8,23.8,35.8,35.7c0.9,0.9,1.3,1.8,1.3,3   c0,38.3,0,76.7,0,115c0,1.3-0.4,2.2-1.3,3c-9.5,9-18.9,18.1-28.3,27.2c-4.7,4.5-9.4,9.1-14.1,13.6c-0.7,0.7-1.4,1.1-2.5,1.1   c-4-0.1-7.9,0.1-11.9-0.1c-5.9-0.3-11.3-2.3-16.3-5.5c-1-0.6-1.8-1.4-2.6-2.3c-2.6-3-5.5-5.5-9-7.3c-8.2-4.3-11.9-11.5-12.6-20.4   c-0.2-3-0.1-6-0.2-9c0-8.3,0-16.6,0-25c0-1.3-0.3-2.8,1.2-3.4c1.3-0.5,2.3,0.5,3.3,1.2c2.8,2.2,5.9,3.2,9.5,3   c1.8-0.1,3.6-0.1,5.3-0.3c3.2-0.4,6.3,0,9.2,1.3c3.4,1.6,6.6,3.5,9.9,5.3c2.6,1.5,5,3.3,7.6,4.8c1.1,0.7,2.3,1.2,3.6,1.5   c1.6,0.4,2.6-0.3,2.7-1.9c0.1-1.4,0.1-2.9-0.3-4.3c-1.3-4.4-2.7-8.9-4.3-13.2c-1-2.7-3.1-4.6-5.4-6.3c-1.5-1.1-3.1-1.9-4.7-3   c-0.8-0.5-1.6-1-2.3-1.7c-1.9-2.1-1.8-4,0.1-6.1c0.8-0.9,1.5-1.8,2-2.8c1.3-2.5,0.6-4.6-2-5.7c-1.9-0.7-3.9-1.2-5.9-1.5   c-4.4-0.7-8.3-2.2-11.4-5.4c-1-1.1-1.9-2.3-2.6-3.6c-0.8-1.4-0.4-2.8,0.9-3.7c1.7-1.2,3.6-1.4,5.4-0.3c4.9,2.9,10.3,4.3,16,4.6   C169.5,241.6,170.6,241.5,172,241.4z"/>
	<path id="XMLID_13_" class="st0" d="M12.8,258.4c21.5,0,42.9,0,64.2,0c0,0.1,0.1,0.2,0.1,0.3c-0.7,0.4-1.5,0.8-2.2,1.2   c-3.7,1.8-7.2,3.9-9.9,7.1c-2.5,3-6.2,14-6.1,18c0,0.4,0,0.8,0.1,1.2c0.3,1.1,0.7,2.1,1.9,2.5s2.1-0.3,2.8-1.2   c5.8-6,12.9-9.7,20.8-12.1c2.3-0.7,4.9-0.5,7.3-0.8c2-0.3,4-0.6,6-1.1c2.4-0.6,4.5-1.9,6.2-3.7c1.1-1.1,2.3-2.2,3.5-3.1   c0.8-0.6,1.7-1.2,3-0.8c0.1,0.6,0.2,1.2,0.2,1.9c0,12.5,0,25.1-0.1,37.6c0,3.9-0.4,7.9-1.4,11.7c-0.7,2.7-1.9,5.1-4.1,6.9   c-1.6,1.3-3,2.7-4.5,4.1c-3.2,2.9-5.9,6.2-8.1,9.9c-1.9,3.3-4.2,6.4-7.1,8.9c-4.1,3.6-8.8,5.4-14.2,5.5c-4.2,0.1-8.3,0-12.5,0   c-1,0-1.8-0.3-2.5-1c-8.9-8.6-17.9-17.2-26.8-25.8c-5-4.8-10-9.6-15.1-14.4c-1.3-1.2-1.9-2.4-1.9-4.2c0.1-15.5,0.1-31.1,0.1-46.6   C12.7,259.7,12.7,259.1,12.8,258.4z"/>
</g>
</svg>