<svg xmlns:xlink="http://www.w3.org/1999/xlink" xmlns="http://www.w3.org/2000/svg" width="31" height="32" viewBox="0 0 31 32" fill="none">
<path d="M10.1689 21.8641C10.0687 21.8641 9.96852 21.8641 9.86834 21.8641C9.04183 21.8897 8.24037 22.018 7.43892 22.2233C6.13655 22.5826 4.88427 23.2241 3.80731 24.0453C3.70713 24.0196 3.5819 23.994 3.48172 23.9426C3.05594 23.8143 2.68026 23.609 2.30458 23.3781C1.6033 22.1463 1.0523 20.7863 0.70166 19.3749C3.83236 18.3228 7.5391 19.067 9.86834 21.5048C9.86834 21.5048 9.86834 21.5048 9.86834 21.5305C9.96852 21.6331 10.0687 21.7614 10.1689 21.8641Z" fill="#737377"/>
<path d="M29.8296 18.9374C29.6042 19.9382 29.3036 20.9133 28.9029 21.8371C28.1515 21.1699 27.325 20.631 26.6738 19.8868C26.749 19.8355 26.8241 19.7842 26.8992 19.7329C26.9994 19.6559 27.0996 19.6046 27.1998 19.5533C27.9762 19.0914 28.9029 18.8861 29.8296 18.9374Z" fill="#737377"/>
<path d="M26.6738 19.9132C25.8223 20.5804 25.1961 21.5042 24.5199 22.3511C23.6684 23.4288 22.6916 24.4296 21.6397 25.3021C21.4143 25.4817 21.1638 25.687 20.9384 25.841C20.8382 25.918 20.713 25.9949 20.5878 26.0719C19.5358 25.7127 18.534 25.2508 17.6324 24.6349C17.0313 24.25 16.4803 23.8394 15.8792 23.4545C14.2763 22.4794 12.4229 21.9405 10.5445 21.8892C10.4443 21.8892 10.3191 21.8892 10.1938 21.8892C10.294 21.7865 10.4193 21.6582 10.5445 21.5556C11.947 19.708 14.4516 15.9358 15.9543 14.1651C17.8828 11.907 20.8132 11.7787 22.4161 13.4466C23.4429 14.5244 24.2945 15.7561 24.9707 17.0649C25.4466 17.963 25.8724 18.8868 26.4735 19.6823C26.5236 19.7593 26.5987 19.8363 26.6738 19.9132Z" fill="#737377"/>
<path d="M28.9033 21.837C28.1519 23.5819 27.1 25.1473 25.7977 26.4816C25.6724 26.6099 25.5722 26.7126 25.422 26.8409C23.8942 26.8666 22.3664 26.6356 20.8887 26.1737C20.7885 26.148 20.6633 26.0967 20.5381 26.0454C20.6633 25.9941 20.7635 25.9171 20.8887 25.8144C21.1392 25.6348 21.3646 25.4552 21.59 25.2756C22.6419 24.4031 23.6187 23.428 24.4702 22.3245C25.1465 21.4777 25.7726 20.5539 26.6242 19.8867C27.3254 20.6566 28.1519 21.1954 28.9033 21.837Z" fill="#5A5963"/>
<path d="M3.78252 24.0439C3.68234 24.1209 3.55711 24.1978 3.45693 24.3005C3.3317 24.4031 3.20647 24.5058 3.08124 24.6341C3.03115 24.5571 2.98106 24.4801 2.93097 24.4288L2.27979 23.4023C2.63042 23.6333 3.03115 23.8386 3.45693 23.9669C3.55711 23.9926 3.68234 24.0439 3.78252 24.0439Z" fill="#5A5963"/>
<path d="M20.5632 26.0438C20.3628 26.1721 20.1625 26.2748 19.9621 26.3518C19.1356 26.6854 18.234 26.7367 17.3824 26.634C15.3287 26.4031 13.3501 25.428 11.8974 23.9139C11.2963 23.2724 10.7704 22.5282 10.1943 21.8867C10.2945 21.8867 10.4197 21.8867 10.545 21.8867C12.4234 21.938 14.2768 22.4769 15.8797 23.452C16.4808 23.837 17.0318 24.2475 17.6329 24.6325C18.5095 25.2227 19.5113 25.7102 20.5632 26.0438Z" fill="#5A5963"/>
<path d="M10.1693 21.8633C9.29274 22.7101 8.31596 23.4286 7.16387 23.8649C6.08691 24.2754 4.88472 24.3268 3.78271 24.0445C4.85967 23.2233 6.11195 22.5818 7.41432 22.2225C8.21578 22.0172 9.01724 21.8889 9.84374 21.8633C9.96897 21.8633 10.0691 21.8633 10.1693 21.8633Z" fill="#5A5963"/>
<path d="M25.4466 26.8455C22.7667 29.4372 19.1602 31.0026 15.228 31.0026C10.2439 31.0026 5.81088 28.4878 3.10596 24.6386C3.23118 24.5359 3.35641 24.4076 3.48164 24.305C3.58182 24.2024 3.70705 24.1254 3.80723 24.0484C4.90924 24.3307 6.13647 24.2537 7.18838 23.8688C8.31543 23.4325 9.31726 22.714 10.1939 21.8672C10.7699 22.5344 11.2959 23.2529 11.8969 23.8944C13.3496 25.4084 15.3282 26.4092 17.3819 26.6145C18.2585 26.7171 19.1602 26.6658 19.9616 26.3322C20.162 26.2552 20.3623 26.1526 20.5627 26.0243C20.6879 26.0756 20.7881 26.1013 20.9133 26.1526C22.366 26.6402 23.9188 26.8711 25.4466 26.8455Z" fill="#1E1C21"/>
<path d="M30.4304 15.602H28.3265C28.3265 8.18591 22.4408 2.15554 15.2027 2.15554C7.96449 2.15554 2.10383 8.18591 2.10383 15.602H0C0 7.0055 6.83744 0 15.2277 0C23.618 0 30.4304 7.0055 30.4304 15.602Z" fill="#1E1C21"/>
</svg>